<?xml version="1.0" encoding="UTF-8" standalone="no"?>
<!-- Created with Inkscape (http://www.inkscape.org/) -->

<svg
   xmlns:dc="http://purl.org/dc/elements/1.1/"
   xmlns:cc="http://creativecommons.org/ns#"
   xmlns:rdf="http://www.w3.org/1999/02/22-rdf-syntax-ns#"
   xmlns:svg="http://www.w3.org/2000/svg"
   xmlns="http://www.w3.org/2000/svg"
   xmlns:sodipodi="http://sodipodi.sourceforge.net/DTD/sodipodi-0.dtd"
   xmlns:inkscape="http://www.inkscape.org/namespaces/inkscape"
   width="64"
   height="64"
   id="svg4136"
   version="1.1"
   inkscape:version="0.91 r13725"
   viewBox="0 0 64 64"
   sodipodi:docname="coins.svg">
  <defs
     id="defs4138" />
  <sodipodi:namedview
     id="base"
     pagecolor="#ffffff"
     bordercolor="#666666"
     borderopacity="1.0"
     inkscape:pageopacity="0.0"
     inkscape:pageshadow="2"
     inkscape:zoom="6.625"
     inkscape:cx="50.700442"
     inkscape:cy="46.370073"
     inkscape:current-layer="layer1"
     showgrid="true"
     inkscape:document-units="px"
     inkscape:grid-bbox="true"
     inkscape:window-width="1920"
     inkscape:window-height="1017"
     inkscape:window-x="1912"
     inkscape:window-y="-8"
     inkscape:window-maximized="1" />
  <metadata
     id="metadata4141">
    <rdf:RDF>
      <cc:Work
         rdf:about="">
        <dc:format>image/svg+xml</dc:format>
        <dc:type
           rdf:resource="http://purl.org/dc/dcmitype/StillImage" />
        <dc:title></dc:title>
      </cc:Work>
    </rdf:RDF>
  </metadata>
  <g
     id="layer1"
     inkscape:label="Layer 1"
     inkscape:groupmode="layer">
    <circle
       style="fill:#000000;fill-opacity:1;stroke-width:1;stroke-miterlimit:4;stroke-dasharray:none"
       id="path4738"
       cx="32"
       cy="32"
       r="30" />
    <path
       sodipodi:type="spiral"
       style="fill:#ffffff;fill-rule:evenodd;stroke:#000000;stroke-width:1px;stroke-linecap:butt;stroke-linejoin:miter;stroke-opacity:1"
       id="path4750"
       sodipodi:cx="31.597651"
       sodipodi:cy="32.402348"
       sodipodi:expansion="0.090000004"
       sodipodi:revolution="10"
       sodipodi:radius="16.159405"
       sodipodi:argument="-61.973736"
       sodipodi:t0="0"
       d="m 31.597651,32.402348 c 10.682374,12.361029 -2.975349,13.560341 -8.772304,7.581005 -4.58884,-4.733212 -4.093499,-12.526453 0.703307,-16.917984 5.074627,-4.645878 13.18461,-4.118516 17.752992,0.968091 4.733685,5.270661 4.175537,13.618042 -1.095597,18.306889 -5.411514,4.81372 -13.944891,4.232839 -18.728002,-1.175379 -4.884143,-5.522455 -4.285746,-14.208739 1.232009,-19.069979 5.614413,-4.946397 14.430708,-4.333889 19.358947,1.275321 5.002011,5.693176 4.377738,14.622714 -1.310117,19.609748 -5.7622,5.052219 -14.792168,4.417875 -19.831673,-1.33906 -5.09797,-5.823722 -4.45483,-14.944003 1.363763,-20.030944 5.879277,-5.139994 15.081674,-4.489052 20.21194,1.38527 5.178864,5.929967 4.520909,15.207698 -1.404288,20.377864 -5.976611,5.215029 -15.323972,4.550708 -20.531138,-1.421319 -5.24885,-6.019834 -4.578698,-15.431954 1.436731,-20.673631 6.060124,-5.280623 15.532797,-4.605092 20.806826,1.450799 5.310588,6.09787 4.630063,15.627424 -1.463738,20.931911 -6.133388,5.338946 -15.716589,4.653761 -21.049858,-1.475712 -5.365868,-6.166938 -4.676314,-15.800914 1.486853,-21.161474 6.198738,-5.391497 15.880922,-4.69783 21.267434,1.497271 5.415956,6.228966 4.718402,15.95705 -1.507054,21.368306 -6.257778,5.439352 -16.029673,4.738114 -21.464579,-1.516273 -5.461775,-6.285308 -4.757035,-16.099114 1.524992,-21.556672 6.311669,-5.483309 16.165653,-4.775231 21.64495,1.533261 5.504022,6.336961 4.792756,16.229533 -1.541127,21.729728 -6.36127,5.523979 -16.290967,4.80966 -21.811287,-1.548624 -5.543234,-6.384675 -4.825987,-16.350145 1.555789,-21.889874 6.407243,-5.561837 16.407233,-4.841776 21.965707,1.562649 5.579832,6.429034 4.857063,16.46238 -1.569231,22.03898 -6.450102,5.597261 -16.51572,4.871881 -22.109869,-1.575554 -5.614158,-6.470497 -4.886259,-16.567374 1.581641,-22.178532 6.490261,-5.630557 16.617448,-4.900222 22.245109,1.587508 5.646488,6.509434 4.913796,16.666041 -1.59317,22.30973 -6.528053,5.661978 -16.713244,4.927002 -22.372512,-1.598642 -5.677052,-6.54615 -4.939861,-16.759135 1.603936,-22.433561 6.563754,-5.691732 16.80379,-4.952391 22.492975,1.609064 5.706039,6.580894 4.96461,16.847277 -1.614037,22.550844 -6.597593,5.719992 -16.889657,4.976531 -22.607247,-1.618864 -5.733611,-6.613876 -4.988172,-16.930988 1.623552,-22.662263 6.629763,-5.74691 16.971324,-4.999546 22.71596,1.628111 5.759907,6.645274 5.010664,17.010713 -1.632547,22.768404"
       transform="matrix(1.7536466,0,0,1.7964022,-24.116692,-25.484872)" />
    <path
       sodipodi:type="spiral"
       style="fill:#ffffff;fill-rule:evenodd;stroke:#000000;stroke-width:1px;stroke-linecap:butt;stroke-linejoin:miter;stroke-opacity:1"
       id="path4750-6"
       sodipodi:cx="31.597651"
       sodipodi:cy="32.402348"
       sodipodi:expansion="13.12"
       sodipodi:revolution="10"
       sodipodi:radius="16.159405"
       sodipodi:argument="-61.973736"
       sodipodi:t0="0"
       d="m 31.597651,32.402348 c 0,0 0,0 0,0 0,0 0,0 0,0 0,0 0,0 0,0 0,0 0,0 0,0 0,0 0,0 0,0 0,0 0,0 0,0 -10e-7,0 -10e-7,0 -10e-7,0 0,-1e-6 0,-1e-6 10e-7,-1e-6 0,0 1e-6,0 1e-6,1e-6 1e-6,10e-7 -1e-6,3e-6 -2e-6,4e-6 -5e-6,10e-7 -9e-6,-3e-6 -1e-5,-6e-6 -5e-6,-1.2e-5 6e-6,-2.3e-5 1.6e-5,-2.6e-5 2.8e-5,-1e-5 5.4e-5,1.5e-5 6.1e-5,4e-5 2.1e-5,6.4e-5 -3.8e-5,1.22e-4 -9.5e-5,1.39e-4 -1.4e-4,4.1e-5 -2.65e-4,-8.7e-5 -2.98e-4,-2.12e-4 -7.8e-5,-2.95e-4 1.88e-4,-5.5e-4 4.53e-4,-6.14e-4 5.93e-4,-1.44e-4 0.0011,3.9e-4 0.0012,9.26e-4 2.56e-4,0.0012 -7.79e-4,0.0021 -0.0018,0.0023 -0.0022,4.41e-4 -0.004,-0.0015 -0.0043,-0.0035 -7.4e-4,-0.004 0.0028,-0.0072 0.0064,-0.0078 0.0071,-0.0012 0.01276,0.0051 0.01377,0.0116 0.0019,0.01226 -0.0091,0.02206 -0.02037,0.02369 -0.02084,0.003 -0.03734,-0.01569 -0.03987,-0.03496 -0.0046,-0.03468 0.02656,-0.06192 0.05872,-0.06579 0.05662,-0.0068 0.100787,0.04405 0.106561,0.0967 0.01,0.09084 -0.0717,0.16122 -0.156388,0.169673 -0.143355,0.01431 -0.253749,-0.114706 -0.265886,-0.248662 -0.02019,-0.222787 0.180544,-0.39339 0.389185,-0.410492 0.341303,-0.02798 0.601313,0.279901 0.624966,0.600195 0.0381,0.515887 -0.427832,0.907025 -0.912908,0.939139 -0.769999,0.05098 -1.351222,-0.645324 -1.394014,-1.370662 -0.067,-1.135722 0.961311,-1.98949 2.033012,-2.045417 1.656518,-0.08645 2.897035,1.415313 2.968654,2.981007 0.10936,2.390757 -2.060791,4.174746 -4.32396,4.264453 -3.416164,0.135411 -5.956828,-2.969448 -6.066439,-6.208037 -0.163657,-4.835442 4.236657,-8.420439 8.827117,-8.550539 6.783278,-0.192246 11.797696,5.988289 11.946678,12.436398 0.08024,3.472682 -1.123349,6.895962 -3.224414,9.646829"
       transform="matrix(1.7536466,0,0,1.7964022,-23.520585,-26.092966)" />
    <path
       sodipodi:type="spiral"
       style="fill:#ffffff;fill-rule:evenodd;stroke:#000000;stroke-width:1px;stroke-linecap:butt;stroke-linejoin:miter;stroke-opacity:1"
       id="path4750-5"
       sodipodi:cx="31.597651"
       sodipodi:cy="32.402348"
       sodipodi:expansion="2.3900001"
       sodipodi:revolution="10"
       sodipodi:radius="16.159405"
       sodipodi:argument="-61.973736"
       sodipodi:t0="0"
       d="m 31.597651,32.402348 c 6.3e-4,7.29e-4 -0.0015,0.0015 -0.0018,0.0016 -0.0056,7.36e-4 -0.0072,-0.0071 -0.0064,-0.01107 0.0031,-0.01449 0.0218,-0.01683 0.03326,-0.01214 0.02781,0.01139 0.03068,0.04795 0.018,0.07145 -0.02484,0.04605 -0.0874,0.04913 -0.127945,0.02356 -0.06969,-0.04396 -0.07255,-0.141643 -0.02854,-0.204639 0.06924,-0.09912 0.211944,-0.101218 0.303182,-0.03271 0.134695,0.101145 0.135428,0.299436 0.03588,0.425046 -0.140067,0.176733 -0.405142,0.175437 -0.57157,0.0379 -0.225533,-0.186384 -0.22149,-0.530001 -0.03863,-0.743986 0.240441,-0.281371 0.674885,-0.273813 0.943443,-0.03795 0.344506,0.302563 0.332622,0.840611 0.03575,1.171015 -0.373053,0.415186 -1.027946,0.398125 -1.427715,0.03192 -0.493645,-0.452199 -0.470517,-1.237619 -0.02637,-1.714507 0.540275,-0.580106 1.470321,-0.549984 2.032305,-0.01901 0.674782,0.637541 0.636709,1.726711 0.0098,2.381983 -0.744249,0.77788 -2.007426,0.730865 -2.764383,-0.0015 -0.889596,-0.860638 -0.832618,-2.313071 0.01471,-3.180309 0.986939,-1.010124 2.644235,-0.942132 3.63054,0.03009 1.139647,1.123374 1.059563,3.001479 -0.04765,4.115825 -1.270161,1.278343 -3.385354,1.185064 -4.636891,-0.06746 -1.426388,-1.427506 -1.318782,-3.796387 0.08957,-5.194442 1.595615,-1.583949 4.235095,-1.460859 5.789162,0.114055 1.751191,1.77468 1.611439,4.701974 -0.140965,6.421714 -1.964897,1.928272 -5.197512,1.770655 -7.092745,-0.170358 -2.115351,-2.16645 -1.938642,-5.722183 0.202287,-7.802884 2.37952,-2.31258 6.276448,-2.115531 8.552746,0.236804 2.520105,2.604286 2.301447,6.860757 -0.273961,9.34293 -2.84092,2.738074 -7.475551,2.496516 -10.174023,-0.313805 -2.966629,-3.089592 -2.700859,-8.121261 0.356387,-11.046599 3.350468,-3.205908 8.798307,-2.914597 11.961217,0.401752 3.456049,3.623709 3.137845,9.507104 -0.449946,12.918429 -3.909474,3.717185 -10.248054,3.370719 -13.918772,-0.501015 -3.989449,-4.20792 -3.613332,-11.021555 0.555,-14.962774 4.5192,-4.27297 11.827996,-3.865796 16.050956,0.611945 4.567873,4.843463 4.128217,12.667759 -0.671891,17.183825 -5.180857,4.874284 -13.541221,4.400705 -18.361884,-0.73488 -5.192325,-5.531527 -4.683363,-14.448748 0.800952,-19.585621 5.895616,-5.522118 15.390705,-4.976296 20.855523,0.870144 5.86378,6.273263 5.279606,16.367449 -0.942498,22.172065"
       transform="matrix(1.7536466,0,0,1.7964022,-23.476953,-26.138565)" />
  </g>
</svg>
