<?xml version="1.0" encoding="UTF-8" standalone="no"?>
<!-- Created with Inkscape (http://www.inkscape.org/) -->

<svg
   xmlns:dc="http://purl.org/dc/elements/1.1/"
   xmlns:cc="http://creativecommons.org/ns#"
   xmlns:rdf="http://www.w3.org/1999/02/22-rdf-syntax-ns#"
   xmlns:svg="http://www.w3.org/2000/svg"
   xmlns="http://www.w3.org/2000/svg"
   xmlns:sodipodi="http://sodipodi.sourceforge.net/DTD/sodipodi-0.dtd"
   xmlns:inkscape="http://www.inkscape.org/namespaces/inkscape"
   width="64"
   height="64"
   id="svg11226"
   version="1.1"
   inkscape:version="0.91 r13725"
   viewBox="0 0 64 64"
   sodipodi:docname="custom_string.svg">
  <defs
     id="defs11228" />
  <sodipodi:namedview
     id="base"
     pagecolor="#ffffff"
     bordercolor="#666666"
     borderopacity="1.0"
     inkscape:pageopacity="0.0"
     inkscape:pageshadow="2"
     inkscape:zoom="11"
     inkscape:cx="35.373704"
     inkscape:cy="31.507776"
     inkscape:current-layer="layer1"
     showgrid="true"
     inkscape:document-units="px"
     inkscape:grid-bbox="true"
     inkscape:window-width="1920"
     inkscape:window-height="1017"
     inkscape:window-x="1912"
     inkscape:window-y="-8"
     inkscape:window-maximized="1" />
  <metadata
     id="metadata11231">
    <rdf:RDF>
      <cc:Work
         rdf:about="">
        <dc:format>image/svg+xml</dc:format>
        <dc:type
           rdf:resource="http://purl.org/dc/dcmitype/StillImage" />
        <dc:title></dc:title>
      </cc:Work>
    </rdf:RDF>
  </metadata>
  <g
     id="layer1"
     inkscape:label="Layer 1"
     inkscape:groupmode="layer">
    <path
       sodipodi:type="spiral"
       style="fill:none;fill-rule:evenodd;stroke:#000000;stroke-width:1px;stroke-linecap:butt;stroke-linejoin:miter;stroke-opacity:1"
       id="path12050"
       sodipodi:cx="15.909091"
       sodipodi:cy="16"
       sodipodi:expansion="0.60000002"
       sodipodi:revolution="5"
       sodipodi:radius="15.000276"
       sodipodi:argument="-7.8479209"
       sodipodi:t0="0"
       d="m 15.909091,16 c 0.01095,-1.807247 2.039993,-1.173726 2.48584,0.01507 0.653242,1.741779 -0.847696,3.445962 -2.508676,3.752763 -2.381761,0.439939 -4.503793,-1.494785 -4.782746,-3.796955 -0.352165,-2.90638 2.005831,-5.428499 4.840195,-5.681836 3.371714,-0.3013649 6.262116,2.44475 6.494516,5.750534 0.26693,3.796963 -2.837502,7.029227 -6.573275,7.244328 -4.19231,0.241389 -7.7450799,-3.197423 -7.9455835,-7.332324 -0.2213156,-4.564096 3.5324095,-8.4198363 8.0421935,-8.6077753 4.916633,-0.2048939 9.060659,3.8475893 9.237601,8.7125043 0.191059,5.253028 -4.14652,9.672821 -9.350045,9.840004 C 10.2735,26.075448 5.5887772,21.464517 5.4303557,15.93649 5.2616701,10.050302 10.135717,5.1101474 15.976004,4.9596712 22.162197,4.8002827 27.349366,9.9284197 27.492577,16.070205 27.643599,22.546993 22.269413,27.973646 15.835694,28.110166 9.0767599,28.253586 3.4174134,22.640573 3.2870956,15.9235 3.1506401,8.8900684 8.9959427,3.0041935 15.988611,2.8796551 23.289574,2.749626 29.396345,8.8212626 29.515472,16.082466 29.639535,23.644576 23.34702,29.967069 15.823748,30.081106 8.0063723,30.199601 1.4729316,23.691233 1.3636992,15.911843 1.2504255,7.8446433 7.9699989,1.1046812 16.000003,0.99999989" />
    <path
       sodipodi:type="spiral"
       style="fill:none;fill-rule:evenodd;stroke:#000000;stroke-width:1px;stroke-linecap:butt;stroke-linejoin:miter;stroke-opacity:1"
       id="path12052"
       sodipodi:cx="48"
       sodipodi:cy="16"
       sodipodi:expansion="0.44999999"
       sodipodi:revolution="5"
       sodipodi:radius="15"
       sodipodi:argument="-6.2831855"
       sodipodi:t0="0"
       d="m 48,16 c 3.179344,-10e-7 2.184767,3.270189 10e-7,3.896079 -2.572583,0.736991 -4.969043,-1.430568 -5.322202,-3.896078 -0.464349,-3.241761 2.165842,-6.0861114 5.3222,-6.3875219 3.76242,-0.3592853 7.006003,2.6966569 7.270342,6.3875199 0.301204,4.205594 -3.127233,7.800919 -7.27034,8.038302 -4.597541,0.263421 -8.508769,-3.496783 -8.725612,-8.038299 -0.236452,-4.952228 3.824523,-9.1517959 8.725609,-9.3523764 5.278226,-0.2160152 9.74426,4.1214364 9.93158,9.3523724 0.199865,5.581263 -4.394468,10.295924 -9.931576,10.472177 C 42.134608,26.658877 37.186199,21.823853 37.019357,16.000002 36.843641,9.8663918 41.90571,4.6968744 47.999998,4.5381565 54.388195,4.3717842 59.76792,9.6492077 59.919535,15.999998 60.077839,22.630942 54.595213,28.211355 48.000002,28.356693 41.136719,28.50794 35.364022,22.829031 35.22428,16.000002 35.079272,8.9136198 40.94655,2.9561257 47.999998,2.8214136 55.301206,2.6819695 61.436775,8.7305391 61.566935,15.999998 61.701377,23.50857 55.477897,29.816134 48.000002,29.942151 40.290841,30.072065 33.816811,23.679462 33.694587,16.000003 33.568797,8.0964386 40.125242,1.4610001 47.999997,1.3422645 56.092288,1.2202488 62.884486,7.9356937 63,15.999997" />
    <path
       sodipodi:type="spiral"
       style="fill:none;fill-rule:evenodd;stroke:#000000;stroke-width:1px;stroke-linecap:butt;stroke-linejoin:miter;stroke-opacity:1"
       id="path12054"
       sodipodi:cx="48"
       sodipodi:cy="48"
       sodipodi:expansion="0.30000001"
       sodipodi:revolution="5"
       sodipodi:radius="15"
       sodipodi:argument="-4.712389"
       sodipodi:t0="0"
       d="m 48,48 c 0,5.900018 -5.357384,3.921619 -6.106358,0 C 41.168686,44.204136 44.329929,40.832658 48,40.482192 52.414601,40.060628 56.214408,43.667657 56.490214,48 56.80046,52.873339 52.809641,57.025864 48,57.255508 42.751736,57.506094 38.302136,53.195292 38.103691,48 37.890962,42.430765 42.476597,37.723136 48,37.547321 53.85199,37.361046 58.788863,42.188682 58.947417,48 59.114012,54.106008 54.06927,59.249974 48,59.394867 41.6625,59.546164 36.329071,54.303879 36.195299,48 36.056287,41.449222 41.480301,35.940731 48,35.816214 54.748977,35.687318 60.42051,41.279984 60.537186,48 60.657584,54.934451 54.907288,60.758825 48,60.868758 40.890981,60.981902 34.922551,55.083404 34.818487,48 34.711621,40.72588 40.750146,34.62105 48,34.522148 55.43091,34.420777 61.665402,40.592168 61.759721,48 61.856237,55.580339 55.558317,61.938506 48,62.028727 40.276807,62.120916 33.800322,55.702117 33.713793,48 33.625489,40.139866 40.160089,33.549892 48,33.466708 55.991724,33.381913 62.69081,40.027726 62.770947,48 62.852553,56.118443 56.099698,62.922653 48,63" />
    <path
       sodipodi:type="spiral"
       style="fill:none;fill-rule:evenodd;stroke:#000000;stroke-width:1px;stroke-linecap:butt;stroke-linejoin:miter;stroke-opacity:1"
       id="path12056"
       sodipodi:cx="16"
       sodipodi:cy="48"
       sodipodi:expansion="0.15000001"
       sodipodi:revolution="5"
       sodipodi:radius="15"
       sodipodi:argument="-3.1415927"
       sodipodi:t0="0"
       d="m 16,48 c -11.8780488,10e-7 -6.7293577,-8.92794 -10e-7,-9.570547 5.580044,-0.532855 10.357917,4.098517 10.619188,9.570546 0.286856,6.007894 -4.670545,11.095737 -10.619186,11.285089 C 9.6890407,59.485972 4.3669237,54.268463 4.2172747,48.000001 4.060932,41.451157 9.4848279,35.940645 15.999999,35.816214 22.74598,35.687375 28.41467,41.282135 28.521589,47.999999 28.631646,54.915042 22.890785,60.72049 16.000001,60.814494 8.9365069,60.910854 3.010307,55.04209 2.9262476,48.000001 2.8403496,40.803877 8.8230751,34.769365 15.999999,34.693215 c 7.316197,-0.07763 13.449059,6.008027 13.518758,13.306784 0.07091,7.426042 -6.108711,13.649089 -13.518756,13.713417 C 8.4726152,61.778764 2.166211,55.512593 2.1064271,48.000001 2.0457761,40.378461 8.3922306,33.994494 15.999999,33.93861 c 7.709531,-0.05663 14.166074,6.364751 14.218572,14.061389 0.05315,7.792174 -6.438524,14.316953 -14.21857,14.366483 C 8.1298717,62.416586 1.5406671,55.858675 1.4937634,48.000001 1.4463508,40.056061 8.0669183,33.405809 15.999999,33.361247 24.014056,33.316229 30.72234,39.996269 30.764802,47.999999 30.807673,56.08086 24.071014,62.844468 16.000001,62.885033 7.8553262,62.925968 1.0388437,56.13526 1,48.000001" />
  </g>
</svg>
