<?xml version="1.0" encoding="UTF-8" standalone="no"?>
<!-- Created with Inkscape (http://www.inkscape.org/) -->

<svg
   xmlns:dc="http://purl.org/dc/elements/1.1/"
   xmlns:cc="http://creativecommons.org/ns#"
   xmlns:rdf="http://www.w3.org/1999/02/22-rdf-syntax-ns#"
   xmlns:svg="http://www.w3.org/2000/svg"
   xmlns="http://www.w3.org/2000/svg"
   xmlns:xlink="http://www.w3.org/1999/xlink"
   xmlns:sodipodi="http://sodipodi.sourceforge.net/DTD/sodipodi-0.dtd"
   xmlns:inkscape="http://www.inkscape.org/namespaces/inkscape"
   width="1920"
   height="1080"
   id="svg7295"
   version="1.1"
   inkscape:version="0.91 r13725"
   viewBox="0 0 1920 1080"
   sodipodi:docname="launcher.svg">
  <defs
     id="defs7297">
    <radialGradient
       inkscape:collect="always"
       xlink:href="#linearGradient6739"
       id="radialGradient6745"
       cx="32.028904"
       cy="31.999868"
       fx="32.028904"
       fy="31.999868"
       r="100.19837"
       gradientTransform="matrix(1,0,0,0.94340466,0,1.8110435)"
       gradientUnits="userSpaceOnUse" />
    <linearGradient
       inkscape:collect="always"
       id="linearGradient6739">
      <stop
         style="stop-color:#a4c639;stop-opacity:1;"
         offset="0"
         id="stop6741" />
      <stop
         style="stop-color:#a4c639;stop-opacity:0;"
         offset="1"
         id="stop6743" />
    </linearGradient>
  </defs>
  <sodipodi:namedview
     id="base"
     pagecolor="#ffffff"
     bordercolor="#666666"
     borderopacity="1.0"
     inkscape:pageopacity="0.0"
     inkscape:pageshadow="2"
     inkscape:zoom="0.3"
     inkscape:cx="468.33333"
     inkscape:cy="540"
     inkscape:document-units="px"
     inkscape:current-layer="layer1"
     showgrid="false"
     inkscape:window-width="1920"
     inkscape:window-height="1017"
     inkscape:window-x="1912"
     inkscape:window-y="-8"
     inkscape:window-maximized="1" />
  <metadata
     id="metadata7300">
    <rdf:RDF>
      <cc:Work
         rdf:about="">
        <dc:format>image/svg+xml</dc:format>
        <dc:type
           rdf:resource="http://purl.org/dc/dcmitype/StillImage" />
        <dc:title></dc:title>
      </cc:Work>
    </rdf:RDF>
  </metadata>
  <g
     id="layer1"
     inkscape:label="Layer 1"
     inkscape:groupmode="layer">
    <path
       sodipodi:type="spiral"
       style="opacity:1;fill:url(#radialGradient6745);fill-opacity:1;fill-rule:evenodd;stroke:#a4c639;stroke-width:9.31725597;stroke-linecap:butt;stroke-linejoin:round;stroke-miterlimit:4;stroke-dasharray:74.53805024, 74.53805024;stroke-dashoffset:0;stroke-opacity:1"
       id="path4740"
       sodipodi:cx="37.700161"
       sodipodi:cy="25.630133"
       sodipodi:expansion="1"
       sodipodi:revolution="4"
       sodipodi:radius="102.04682"
       sodipodi:argument="-248.30907"
       sodipodi:t0="0"
       d="m 37.700161,25.630133 c -3.808241,0.471746 -2.514756,-4.900691 -0.784073,-6.329548 4.690045,-3.872114 11.2747,0.05078 13.443168,4.761402 3.878881,8.426191 -2.162218,17.745621 -10.306877,20.556789 C 28.099764,48.744277 15.725194,40.345804 12.38197,28.766423 7.9259783,13.33293 18.761611,-2.1845982 33.779798,-6.017606 52.678653,-10.841055 71.375534,2.465819 75.677447,20.925697 80.887641,43.283082 65.092051,65.178054 43.18867,69.936967 17.376293,75.54518 -7.7277554,57.250759 -12.936221,31.902714 -18.949601,2.6373922 1.8500243,-25.682748 30.643507,-31.335797 63.360492,-37.75915 94.90149,-14.450049 100.99564,17.789406 107.83235,53.957202 82.01077,88.722445 46.32496,95.255158 6.706948,102.50771 -31.285039,74.171451 -38.254412,35.039005 -45.92466,-8.0287941 -15.07208,-49.24942 27.507216,-56.653988 74.024481,-64.743371 118.47522,-31.373196 126.31383,14.653115 134.82348,64.6196 98.934707,112.30162 49.461251,120.57335 -3.9542616,129.50417 -54.868502,91.096001 -63.572603,38.175295"
       transform="matrix(5.3893094,0,0,5.7126162,787.38633,357.19703)" />
  </g>
</svg>
