<?xml version="1.0" encoding="UTF-8" standalone="no"?>
<!-- Created with Inkscape (http://www.inkscape.org/) -->

<svg
   xmlns:dc="http://purl.org/dc/elements/1.1/"
   xmlns:cc="http://creativecommons.org/ns#"
   xmlns:rdf="http://www.w3.org/1999/02/22-rdf-syntax-ns#"
   xmlns:svg="http://www.w3.org/2000/svg"
   xmlns="http://www.w3.org/2000/svg"
   xmlns:sodipodi="http://sodipodi.sourceforge.net/DTD/sodipodi-0.dtd"
   xmlns:inkscape="http://www.inkscape.org/namespaces/inkscape"
   width="64"
   height="64"
   id="svg11226"
   version="1.1"
   inkscape:version="0.91 r13725"
   viewBox="0 0 64 64"
   sodipodi:docname="string.svg">
  <defs
     id="defs11228" />
  <sodipodi:namedview
     id="base"
     pagecolor="#ffffff"
     bordercolor="#666666"
     borderopacity="1.0"
     inkscape:pageopacity="0.0"
     inkscape:pageshadow="2"
     inkscape:zoom="11"
     inkscape:cx="35.373704"
     inkscape:cy="31.507776"
     inkscape:current-layer="layer1"
     showgrid="true"
     inkscape:document-units="px"
     inkscape:grid-bbox="true"
     inkscape:window-width="1920"
     inkscape:window-height="1017"
     inkscape:window-x="1912"
     inkscape:window-y="-8"
     inkscape:window-maximized="1" />
  <metadata
     id="metadata11231">
    <rdf:RDF>
      <cc:Work
         rdf:about="">
        <dc:format>image/svg+xml</dc:format>
        <dc:type
           rdf:resource="http://purl.org/dc/dcmitype/StillImage" />
        <dc:title></dc:title>
      </cc:Work>
    </rdf:RDF>
  </metadata>
  <g
     id="layer1"
     inkscape:label="Layer 1"
     inkscape:groupmode="layer">
    <path
       sodipodi:type="spiral"
       style="fill:none;fill-rule:evenodd;stroke:#000000;stroke-width:1px;stroke-linecap:butt;stroke-linejoin:miter;stroke-opacity:1"
       id="path12050"
       sodipodi:cx="15.909091"
       sodipodi:cy="16"
       sodipodi:expansion="1"
       sodipodi:revolution="5"
       sodipodi:radius="15.000276"
       sodipodi:argument="-7.8479209"
       sodipodi:t0="0"
       d="m 15.909091,16 c 0.0027,-0.451246 0.609619,-0.218942 0.75,0.0045 C 17.039514,16.610183 16.482203,17.318558 15.9,17.5 14.858574,17.824558 13.863408,16.978768 13.659091,15.986363 13.359247,14.529969 14.526266,13.214279 15.927273,13 c 1.867323,-0.285601 3.512568,1.213283 3.731818,3.022728 0.275904,2.277003 -1.55937,4.25553 -3.777274,4.477272 -2.686178,0.268559 -4.999908,-1.905427 -5.222726,-4.531819 C 10.396508,12.873069 12.910553,10.223008 15.945456,10 19.449372,9.742528 22.436484,12.597481 22.659091,16.04091 22.912032,19.953554 19.7156,23.278208 15.863635,23.5 11.542313,23.748817 7.8797662,20.210505 7.6590909,15.949998 7.4140996,11.220029 11.294586,7.2193321 15.963638,6.9999999 21.102233,6.7586107 25.441276,10.981493 25.659091,16.059093 25.897051,21.606298 21.331603,26.283839 15.845452,26.5 9.8896494,26.734666 4.873488,21.826518 4.6590909,15.931816 4.4276106,9.567423 9.6785671,4.2125443 15.981821,3.9999999 22.754797,3.7716166 28.448473,9.3654692 28.659091,16.077275 28.88445,23.258829 22.947629,29.291369 15.82727,29.5 8.2371425,29.722396 1.8656836,23.442545 1.6590909,15.913633 1.4396073,7.9149355 8.0625384,1.2045103 16.000003,0.99999989" />
    <path
       sodipodi:type="spiral"
       style="fill:none;fill-rule:evenodd;stroke:#000000;stroke-width:1px;stroke-linecap:butt;stroke-linejoin:miter;stroke-opacity:1"
       id="path12052"
       sodipodi:cx="48"
       sodipodi:cy="16"
       sodipodi:expansion="1"
       sodipodi:revolution="5"
       sodipodi:radius="15"
       sodipodi:argument="-6.2831855"
       sodipodi:t0="0"
       d="m 48,16 c 0.451246,0 0.222629,0.60827 0,0.75 -0.60331,0.384079 -1.315036,-0.168917 -1.5,-0.75 -0.330858,-1.03942 0.50887,-2.039676 1.5,-2.25 1.454523,-0.30866 2.777237,0.850342 3,2.249999 C 51.296908,17.865522 49.808051,19.519792 48.000001,19.75 45.724754,20.039694 43.735176,18.216479 43.5,16.000001 43.21517,13.315549 45.375054,10.988728 47.999999,10.75 51.093406,10.468667 53.758606,12.966559 54,15.999999 54.278699,19.502226 51.441955,22.506531 48.000001,22.75 44.089035,23.026645 40.74513,19.85048 40.5,16.000001 40.225001,11.680346 43.740986,7.9964891 47.999999,7.75 52.728309,7.4763504 56.752378,11.332447 57,15.999998 57.272524,21.136942 53.076095,25.501419 48.000002,25.75 42.454443,26.021571 37.749403,21.484641 37.5,16.000002 37.229246,10.04584 42.106812,5.0001156 47.999998,4.75 54.362754,4.4799551 59.749261,9.698264 60,15.999998 60.269424,22.771341 54.710285,28.498711 48.000002,28.75 40.820078,29.018877 34.751778,23.118835 34.5,16.000002 34.23161,8.4115016 40.472614,2.0022161 47.999998,1.75 55.997071,1.4820462 62.74739,8.0640637 63,15.999997" />
    <path
       sodipodi:type="spiral"
       style="fill:none;fill-rule:evenodd;stroke:#000000;stroke-width:1px;stroke-linecap:butt;stroke-linejoin:miter;stroke-opacity:1"
       id="path12054"
       sodipodi:cx="48"
       sodipodi:cy="48"
       sodipodi:expansion="1"
       sodipodi:revolution="5"
       sodipodi:radius="15"
       sodipodi:argument="-4.712389"
       sodipodi:t0="0"
       d="m 48,48 c 0,0.451246 -0.60827,0.222629 -0.75,0 -0.384079,-0.60331 0.168918,-1.315036 0.75,-1.5 1.03942,-0.330858 2.039676,0.50887 2.25,1.5 0.308659,1.454523 -0.850343,2.777238 -2.25,3 -1.865523,0.296907 -3.519792,-1.19195 -3.75,-3 -0.289693,-2.275247 1.533522,-4.264824 3.75,-4.5 2.684452,-0.284829 5.011273,1.875055 5.25,4.5 0.281332,3.093407 -2.21656,5.758606 -5.25,6 -3.502227,0.278698 -6.506532,-2.558046 -6.75,-6 -0.276644,-3.910966 2.899521,-7.254871 6.75,-7.5 4.319655,-0.274998 8.003512,3.240988 8.25,7.5 0.273649,4.728311 -3.582449,8.752379 -8.25,9 -5.136943,0.272523 -9.50142,-3.923906 -9.75,-9 C 37.97843,42.454441 42.515361,37.749402 48,37.5 53.954162,37.229247 58.999885,42.106814 59.25,48 59.520044,54.362756 54.301734,59.749262 48,60 41.228657,60.269423 35.501288,54.710283 35.25,48 34.981125,40.820076 40.881167,34.751777 48,34.5 55.588501,34.231612 61.997785,40.472617 62.25,48 62.517952,55.997074 55.935934,62.747391 48,63" />
    <path
       sodipodi:type="spiral"
       style="fill:none;fill-rule:evenodd;stroke:#000000;stroke-width:1px;stroke-linecap:butt;stroke-linejoin:miter;stroke-opacity:1"
       id="path12056"
       sodipodi:cx="16"
       sodipodi:cy="48"
       sodipodi:expansion="1"
       sodipodi:revolution="5"
       sodipodi:radius="15"
       sodipodi:argument="-3.1415927"
       sodipodi:t0="0"
       d="m 16,48 c -0.451246,0 -0.222629,-0.60827 0,-0.75 0.60331,-0.384079 1.315036,0.168917 1.5,0.75 0.330858,1.03942 -0.50887,2.039676 -1.5,2.25 -1.454523,0.30866 -2.777238,-0.850343 -3,-2.25 -0.296907,-1.865523 1.191949,-3.519792 3,-3.75 2.275246,-0.289694 4.264824,1.533522 4.5,3.75 0.284829,2.684451 -1.875054,5.011272 -4.5,5.25 -3.093407,0.281332 -5.758606,-2.216559 -6,-5.249999 C 9.7213013,44.497774 12.558046,41.493469 15.999999,41.25 19.910966,40.973355 23.254871,44.14952 23.5,47.999999 23.774998,52.319655 20.259013,56.003511 16.000001,56.25 11.27169,56.523649 7.2476217,52.667552 7,48.000001 6.7274763,42.863058 10.923905,38.498581 15.999999,38.25 21.545558,37.978429 26.250597,42.51536 26.5,47.999999 26.770753,53.954161 21.893187,58.999885 16.000001,59.25 9.6372449,59.520044 4.2507386,54.301735 4,48.000001 3.7305762,41.228658 9.2897158,35.501289 15.999999,35.25 23.179923,34.981124 29.248222,40.881166 29.5,47.999999 29.768389,55.5885 23.527384,61.997785 16.000001,62.25 8.0029274,62.517953 1.2526093,55.935935 1,48.000001" />
  </g>
</svg>
